<svg width="7.5" height="16" xmlns="http://www.w3.org/2000/svg" viewBox="0 0 7.5 16">

 <metadata id="metadata418">image/svg+xml</metadata>
 <g>
  <title>background</title>
  <rect fill="none" id="canvas_background" height="402" width="582" y="-1" x="-1"/>
 </g>
 <g>
  <title>Layer 1</title>
  <g id="layer1">
   <path fill="#ffffff" fill-rule="evenodd" stroke-width="0.352778" d="m616.47357,-296.997742l5.2243,0c-0.0674,0.52669 -0.28858,0.75635 -0.83716,0.73871c-1.19591,-0.0388 -2.3943,-0.0109 -3.59091,-0.012c-0.59691,-0.0007 -0.63536,-0.036 -0.79623,-0.72672m0.83714,-1.67569c1.19593,0.0385 2.39395,0.0113 3.59093,0.0123c0.59655,0.00034 0.63535,0.036 0.79623,0.72637l-5.2243,0c0.067,-0.52635 0.28823,-0.75636 0.83714,-0.73872m4.02908,5.39433c-0.70837,-0.49777 -1.49825,-0.87983 -2.2553,-1.30634c-0.41557,-0.23389 -1.02059,-0.55421 -1.44181,-0.77964c0.0173,-0.0349 1.84432,0 2.75237,0c-0.25859,0.20355 -0.44485,0.34819 -0.65016,0.50941c0.28469,0.14993 0.51857,0.29387 0.7694,0.39864c0.10795,0.0462 0.28364,0.0656 0.37078,0.01c1.25693,-0.82303 1.93675,-1.92193 1.94097,-3.01872c0.002,-0.84808 -0.3944,-1.69122 -1.19661,-2.40524c-0.65194,-0.58032 -1.47179,-0.97649 -2.23168,-1.42628c-0.55775,-0.32985 -1.93076,-1.01 -1.91241,-1.06221c0.49001,0 0.52211,0.0194 1.24001,0.003c0.7052,-0.018 1.12149,-0.34855 1.62984,-0.88689c-1.28799,0 -1.9812,0.001 -3.15418,0c-0.20251,0 -0.44133,0.006 -0.44133,0.006c0,0 -0.22755,-0.29069 -0.24977,-0.71261l5.22464,0c-0.25893,1.14159 -1.15641,1.64712 -2.01436,2.21615c0.19226,0.0977 1.0347,0.39723 1.41111,0.13759c1.252,-0.85972 1.73391,-1.92899 1.6824,-3.29072l0,-0.008c0,-0.0155 -0.001,-0.03 -0.003,-0.0441c-0.0236,-0.26211 -0.24237,-0.46601 -0.51012,-0.46601c-0.12876,0 -0.2466,0.0469 -0.3362,0.12594c-0.084,0.0713 -0.14464,0.16969 -0.16721,0.28257c-0.001,0.001 -0.001,0.001 -0.001,0.002c-0.001,0.003 -0.001,0.005 -0.001,0.008c-0.002,0.0187 -0.005,0.036 -0.007,0.0536c-0.00069,0.003 -0.002,0.007 -0.002,0.01c-0.005,0.0275 -4.9322,0.01 -5.39257,0.008c-0.00035,-0.008 -0.00035,-0.0166 -0.001,-0.0247c-0.0236,-0.26212 -0.24233,-0.46602 -0.50939,-0.46602c-0.12841,0 -0.24553,0.0469 -0.33478,0.12594c-0.0843,0.0713 -0.14499,0.16968 -0.16757,0.28257c-0.001,0.001 -0.001,0.001 -0.001,0.002c-0.007,0.0339 -0.0102,0.0688 -0.0102,0.10372c0,0.0166 0.001,0.0318 0.003,0.0473c-0.001,0.002 -0.001,0.003 0,0.005c-0.0462,1.27847 0.35242,2.4063 1.45979,3.18488c0.70802,0.49812 1.49825,0.88018 2.25496,1.30669c0.41593,0.23389 1.02094,0.55421 1.44181,0.77928c-0.0173,0.0349 -1.84397,0 -2.75237,0c0.25892,-0.2032 0.44485,-0.34819 0.65016,-0.50976c-0.28433,-0.14958 -0.51893,-0.29351 -0.7694,-0.39793c-0.10761,-0.0466 -0.28329,-0.066 -0.37042,-0.01c-1.25731,0.82267 -1.93711,1.92158 -1.94099,3.01836c-0.002,0.84843 0.3944,1.69157 1.19627,2.40524c0.65228,0.58032 1.47179,0.97684 2.23203,1.42663c0.55774,0.32985 1.9304,1.00965 1.91205,1.06186c-0.48965,0 -0.52175,-0.0194 -1.23966,-0.003c-0.7052,0.0176 -1.12148,0.34819 -1.62983,0.88653c1.28799,0 1.9812,-0.001 3.15419,0c0.20214,0 0.44131,-0.006 0.44131,-0.006c0,0 0.22755,0.29069 0.24978,0.71296l-5.22465,0c0.25894,-1.14229 1.15642,-1.64747 2.01401,-2.21615c-0.1919,-0.0981 -1.03434,-0.39758 -1.4111,-0.13758c-1.25167,0.85901 -1.73391,1.92864 -1.68206,3.29036l0,0.008c0,0.0155 0.001,0.0296 0.003,0.0441c0.0233,0.26247 0.242,0.46637 0.51012,0.46637c0.12841,0 0.24623,-0.0473 0.33584,-0.12629c0.084,-0.0709 0.14464,-0.16934 0.16757,-0.28222c0.001,-0.001 0.001,-0.001 0.001,-0.002c0.001,-0.003 0.001,-0.005 0.001,-0.008c0.002,-0.0187 0.005,-0.036 0.007,-0.0536c0.001,-0.003 0.002,-0.007 0.002,-0.0102c0.005,-0.0279 4.93183,-0.0102 5.39221,-0.008c0.00035,0.008 0.00035,0.0169 0.002,0.0247c0.0233,0.26247 0.24236,0.46637 0.50906,0.46637c0.12876,0 0.24589,-0.0473 0.33514,-0.12629c0.0843,-0.0709 0.145,-0.16934 0.16721,-0.28222c0.001,-0.001 0.001,-0.001 0.001,-0.002c0.007,-0.0342 0.0102,-0.0688 0.0102,-0.10372c0,-0.0166 -0.001,-0.0317 -0.003,-0.0473c0.001,-0.002 0.001,-0.004 0,-0.006c0.0459,-1.27847 -0.35242,-2.40595 -1.45978,-3.18453" id="path5159"/>
   <g fill="#e6e6e6" transform="matrix(0.35277777,0,0,-0.35277777,698.5,-184.42402) " id="g5161">
    <path fill="#e6e6e6" fill-rule="evenodd" id="path5163" d="m-225.111572,341.527527c-3.5,0.004 -7.01,0.018 -7.632,0.02c-0.001,0.023 -0.001,0.046 -0.005,0.069c-0.066,0.743 -0.686,1.321 -1.443,1.321c-0.364,0 -0.696,-0.133 -0.949,-0.357c-0.24,-0.201 -0.411,-0.481 -0.475,-0.801c-0.003,-0.003 -0.003,-0.003 -0.003,-0.006c-0.02,-0.096 -0.029,-0.195 -0.029,-0.294c0,-0.047 0.003,-0.09 0.009,-0.134c-0.003,-0.005 -0.003,-0.008 0,-0.014c-0.131,-3.624 0.999,-6.821 4.137,-9.028c2.007,-1.411 4.245,-2.495 6.39,-3.702l0,3.194c-1.814,0.994 -4.58,2.386 -4.536,2.511c1.389,0 1.479,-0.055 3.515,-0.009c0.368,0.009 0.701,0.058 1.021,0.126l0,2.386c-1.742,-0.001 -3.281,-0.001 -5.343,0.001c-0.573,0 -1.251,-0.018 -1.251,-0.018c0,0 -0.644,0.824 -0.708,2.02l7.302,0l0,2.715z"/>
   </g>
   <path fill="#e6e6e6" fill-rule="evenodd" stroke-width="0.352778" d="m617.81614,-291.689172c0.48966,0 0.89288,-0.00035 1.26964,-0.00035l0,-0.84173c-0.49882,0.10583 -0.85477,0.40322 -1.26964,0.84208" id="path5167"/>
   <path fill="#e6e6e6" fill-rule="evenodd" stroke-width="0.352778" d="m619.08564,-290.024842l0,-0.95779l-2.64901,0c0.25929,-1.14194 1.15676,-1.64747 2.01436,-2.21615c-0.19226,-0.0977 -1.03434,-0.39758 -1.41111,-0.13758c-1.25201,0.85936 -1.7339,1.92863 -1.68204,3.29035l0,0.008c0,0.0155 0.001,0.0296 0.003,0.0441c0.0236,0.26211 0.24236,0.46602 0.51047,0.46602c0.12841,0 0.24624,-0.0473 0.33584,-0.12595c0.084,-0.0709 0.14464,-0.16968 0.16722,-0.28257c0.001,-0.001 0.001,-0.001 0.001,-0.002c0.001,-0.003 0.001,-0.005 0.001,-0.008c0.002,-0.0191 0.005,-0.0363 0.007,-0.054c0.001,-0.003 0.002,-0.007 0.002,-0.0102c0.002,-0.0145 1.34867,-0.0166 2.69982,-0.0148" id="path5171"/>
   <path fill="#e6e6e6" fill-rule="evenodd" stroke-width="0.352778" d="m616.54179,-295.060892c0.65229,0.58032 1.4718,0.97685 2.23167,1.42664c0.0868,0.0512 0.19439,0.11148 0.31222,0.17604l0,-1.12643c-0.00035,-0.00034 -0.00072,-0.00034 -0.001,-0.00071c-0.41592,-0.23389 -1.02094,-0.55457 -1.4418,-0.77964c0.0106,-0.0212 0.70097,-0.0166 1.44286,-0.009l0,-0.90452c-0.60537,0.002 -1.21073,0.008 -1.8161,0.008c-0.59655,-0.00072 -0.635,-0.0356 -0.79587,-0.72637l2.61197,0l0,-0.93697l-2.61197,0c0.067,-0.5267 0.28822,-0.75636 0.83715,-0.73872c0.5909,0.0191 1.18286,0.0219 1.77482,0.0201l0,-0.90452c-0.46883,-0.004 -0.95813,-0.009 -1.30951,-0.009c0.25859,-0.20355 0.44485,-0.34855 0.65018,-0.50976c-0.28469,-0.14994 -0.51895,-0.29352 -0.76941,-0.39829c-0.10795,-0.0462 -0.28363,-0.0656 -0.37078,-0.009c-1.25695,0.82268 -1.93675,1.92158 -1.94098,3.01837c-0.002,0.84843 0.39476,1.69157 1.19662,2.40524" id="path5175"/>
   <path fill="#ffffff" fill-rule="evenodd" stroke-width="0.352778" d="m1.128337,8.407018l5.22429,0c-0.0674,0.5267 -0.28858,0.75636 -0.83715,0.73872c-1.19591,-0.0388 -2.3943,-0.0109 -3.59092,-0.012c-0.5969,-0.00071 -0.63535,-0.036 -0.79622,-0.72673m0.83714,-1.67569c1.19592,0.0384 2.39395,0.0113 3.59093,0.0123c0.59654,0.00035 0.63535,0.036 0.79622,0.72637l-5.22429,0c0.067,-0.52634 0.28822,-0.75636 0.83714,-0.73872m4.02908,5.39433c-0.70838,-0.49777 -1.49825,-0.87983 -2.25531,-1.30634c-0.41557,-0.23389 -1.02059,-0.55421 -1.4418,-0.77964c0.0173,-0.0349 1.84432,0 2.75237,0c-0.25859,0.20356 -0.44486,0.34819 -0.65017,0.50941c0.28469,0.14993 0.51858,0.29387 0.76941,0.39864c0.10795,0.0462 0.28363,0.0656 0.37077,0.01c1.25694,-0.82303 1.93675,-1.92193 1.94098,-3.01872c0.002,-0.84808 -0.39441,-1.69122 -1.19662,-2.40524c-0.65194,-0.58032 -1.47179,-0.97649 -2.23168,-1.42628c-0.55774,-0.32984 -1.93075,-1.01 -1.9124,-1.06221c0.49,0 0.52211,0.0194 1.24001,0.004c0.7052,-0.018 1.12148,-0.34855 1.62983,-0.88689c-1.28799,0 -1.9812,0.001 -3.15418,0c-0.2025,0 -0.44133,0.006 -0.44133,0.006c0,0 -0.22754,-0.29068 -0.24976,-0.71261l5.22463,0c-0.25893,1.14159 -1.1564,1.64712 -2.01436,2.21615c0.19227,0.0977 1.0347,0.39723 1.41111,0.13759c1.25201,-0.85972 1.73391,-1.92899 1.6824,-3.29071l0,-0.008c0,-0.0155 -0.001,-0.03 -0.003,-0.0441c-0.0236,-0.26211 -0.24236,-0.46602 -0.51012,-0.46602c-0.12876,0 -0.24659,0.0469 -0.3362,0.12594c-0.084,0.0713 -0.14464,0.16969 -0.16721,0.28258c-0.001,0.001 -0.001,0.001 -0.001,0.002c-0.001,0.003 -0.001,0.005 -0.001,0.008c-0.002,0.0187 -0.005,0.036 -0.007,0.0536c-0.000688,0.003 -0.002,0.007 -0.002,0.01c-0.005,0.0275 -4.93219,0.01 -5.39256,0.009c-0.00036,-0.009 -0.00036,-0.0166 -0.001,-0.0247c-0.02357,-0.26212 -0.24233,-0.46602 -0.50939,-0.46602c-0.12841,0 -0.24553,0.0469 -0.33478,0.12594c-0.0843,0.0713 -0.14499,0.16969 -0.16757,0.28257c-0.001,0.001 -0.001,0.001 -0.001,0.002c-0.007,0.0339 -0.0102,0.0688 -0.0102,0.10371c0,0.0166 0.001,0.0318 0.003,0.0473c-0.001,0.002 -0.001,0.003 0,0.005c-0.0462,1.27847 0.35242,2.4063 1.45979,3.18488c0.70802,0.49812 1.49825,0.88018 2.25495,1.30669c0.41593,0.23389 1.02094,0.55421 1.44181,0.77928c-0.0173,0.0349 -1.84397,0 -2.75237,0c0.25893,-0.2032 0.44485,-0.34819 0.65016,-0.50976c-0.28433,-0.14958 -0.51893,-0.29351 -0.7694,-0.39793c-0.1076,-0.0466 -0.28328,-0.066 -0.37042,-0.009c-1.2573,0.82268 -1.9371,1.92158 -1.94098,3.01836c-0.002,0.84844 0.3944,1.69157 1.19627,2.40524c0.65228,0.58032 1.47178,0.97684 2.23202,1.42663c0.55774,0.32985 1.9304,1.00965 1.91206,1.06186c-0.48966,0 -0.52176,-0.0194 -1.23966,-0.003c-0.70521,0.0176 -1.12149,0.34819 -1.62984,0.88653c1.28799,0 1.9812,-0.001 3.15419,0c0.20214,0 0.44132,-0.006 0.44132,-0.006c0,0 0.22754,0.29069 0.24977,0.71296l-5.22464,0c0.25894,-1.14229 1.15641,-1.64747 2.01401,-2.21615c-0.19191,-0.0981 -1.03435,-0.39758 -1.41111,-0.13758c-1.25166,0.85901 -1.7339,1.92864 -1.68205,3.29036l0,0.008c0,0.0155 0.001,0.0296 0.003,0.0441c0.0233,0.26247 0.242,0.46637 0.51012,0.46637c0.12841,0 0.24623,-0.0473 0.33584,-0.12629c0.084,-0.0709 0.14464,-0.16934 0.16757,-0.28222c0.001,-0.001 0.001,-0.001 0.001,-0.002c0.001,-0.003 0.001,-0.005 0.001,-0.008c0.002,-0.0187 0.005,-0.036 0.007,-0.0536c0.001,-0.003 0.002,-0.007 0.002,-0.0102c0.005,-0.0279 4.93183,-0.0102 5.39221,-0.008c0.000344,0.008 0.000344,0.0169 0.002,0.0247c0.0233,0.26247 0.24236,0.46637 0.50906,0.46637c0.12876,0 0.24588,-0.0473 0.33514,-0.12629c0.0843,-0.0709 0.14499,-0.16934 0.16721,-0.28222c0.001,-0.001 0.001,-0.001 0.001,-0.002c0.007,-0.0342 0.0102,-0.0688 0.0102,-0.10372c0,-0.0166 -0.001,-0.0317 -0.003,-0.0473c0.001,-0.002 0.001,-0.004 0,-0.006c0.0459,-1.27847 -0.35242,-2.40595 -1.45979,-3.18453" id="path5159-5"/>
   <path fill="#e6e6e6" fill-rule="evenodd" id="path5163-9" d="m3.740408,0.497421c-1.234722,-0.001411 -2.472972,-0.00635 -2.6924,-0.007056c-0.000353,-0.008114 -0.000353,-0.016228 -0.001764,-0.024342c-0.023283,-0.262114 -0.242006,-0.466019 -0.509058,-0.466019c-0.128411,0 -0.245533,0.046919 -0.334786,0.125942c-0.084667,0.070908 -0.144992,0.169686 -0.167569,0.282575c-0.001058,0.001058 -0.001058,0.001058 -0.001058,0.002117c-0.007056,0.033867 -0.010231,0.068792 -0.010231,0.103717c0,0.016581 0.001058,0.03175 0.003175,0.047272c-0.001058,0.001764 -0.001058,0.002822 0,0.004939c-0.046214,1.278467 0.352425,2.406297 1.459442,3.184878c0.708025,0.497769 1.497542,0.880181 2.25425,1.305983l0,-1.126772c-0.639939,-0.350661 -1.615722,-0.841728 -1.6002,-0.885825c0.490008,0 0.521758,0.019403 1.240014,0.003175c0.129822,-0.003175 0.247297,-0.020461 0.360186,-0.04445l0,-0.841728c-0.614539,0.000353 -1.157464,0.000353 -1.884892,-0.000353c-0.202142,0 -0.441325,0.00635 -0.441325,0.00635c0,0 -0.227189,-0.290689 -0.249767,-0.712611l2.575983,0l0,-0.957792z"/>
   <path fill="#e6e6e6" fill-rule="evenodd" stroke-width="0.352778" d="m2.470897,13.715588c0.48966,0 0.89288,-0.00034 1.26965,-0.00034l0,-0.84173c-0.49883,0.10583 -0.85478,0.40322 -1.26965,0.84208" id="path5167-4"/>
   <path fill="#e6e6e6" fill-rule="evenodd" stroke-width="0.352778" d="m3.740407,15.379918l0,-0.95779l-2.64901,0c0.25929,-1.14194 1.15676,-1.64747 2.01436,-2.21615c-0.19226,-0.0977 -1.03434,-0.39758 -1.41111,-0.13758c-1.25201,0.85936 -1.7339,1.92863 -1.68204,3.29035l0,0.008c0,0.0155 0.001,0.0296 0.003,0.0441c0.0236,0.26211 0.24236,0.46602 0.51047,0.46602c0.12841,0 0.24624,-0.0473 0.33584,-0.12595c0.084,-0.0709 0.14464,-0.16968 0.16722,-0.28257c0.001,-0.001 0.001,-0.001 0.001,-0.002c0.001,-0.003 0.001,-0.005 0.001,-0.008c0.002,-0.0191 0.005,-0.0363 0.007,-0.054c0.001,-0.003 0.002,-0.007 0.002,-0.0102c0.002,-0.0145 1.34867,-0.0166 2.69981,-0.0148" id="path5171-3"/>
   <path fill="#e6e6e6" fill-rule="evenodd" stroke-width="0.352778" d="m1.196557,10.343878c0.65229,0.58031 1.47179,0.97684 2.23167,1.42663c0.0868,0.0512 0.19438,0.11148 0.31221,0.17604l0,-1.12642c-0.000344,-0.00035 -0.000714,-0.00035 -0.001,-0.00072c-0.41592,-0.23389 -1.02094,-0.55456 -1.4418,-0.77964c0.0106,-0.0212 0.70097,-0.0166 1.44286,-0.01l0,-0.90452c-0.60537,0.002 -1.21073,0.008 -1.8161,0.008c-0.59655,-0.00072 -0.635,-0.0356 -0.79587,-0.72637l2.61198,0l0,-0.93697l-2.61197,0c0.067,-0.5267 0.28822,-0.75635 0.83715,-0.73871c0.5909,0.019 1.18286,0.0219 1.77482,0.0201l0,-0.90453c-0.46884,-0.004 -0.95814,-0.01 -1.30951,-0.01c0.25859,-0.20355 0.44485,-0.34854 0.65017,-0.50976c-0.28469,-0.14993 -0.51894,-0.29351 -0.76941,-0.39829c-0.10795,-0.0462 -0.28363,-0.0656 -0.37077,-0.009c-1.25695,0.82268 -1.93675,1.92158 -1.94098,3.01837c-0.002,0.84843 0.39476,1.69157 1.19662,2.40524" id="path5175-1"/>
  </g>
 </g>
</svg>
