<svg width="18" height="27" xmlns="http://www.w3.org/2000/svg" viewBox="0 0 18 27">
 <defs>
  <clipPath id="clipPath5079" clipPathUnits="userSpaceOnUse">
   <path id="path5077" d="m0,640l360,0l0,-640l-360,0l0,640z"/>
  </clipPath>
 </defs>
 <g>
  <title>background</title>
  <rect fill="none" id="canvas_background" height="29" width="20" y="-1" x="-1"/>
 </g>
 <g>
  <title>Layer 1</title>
  <path fill="#fffef9" fill-rule="nonzero" d="m14.322129,8.977258l-3.481211,0l0,10.969272c0,0.84067 0.634295,1.590675 1.511653,1.697214c1.061508,0.129822 1.969558,-0.655461 1.969558,-1.639358l0,-11.027128z" id="path5103"/>
  <path fill="#ec008c" fill-rule="nonzero" d="m13.158385,13.825909c-0.57785,0 -0.57785,0.289983 -1.155347,0.289983c-0.124178,0 -0.218017,-0.015169 -0.299861,-0.035631l0,5.837414c0,0.480131 0.389467,0.86995 0.870656,0.86995c0.480131,0 0.86995,-0.389819 0.86995,-0.86995l0,-6.058958c-0.079022,-0.01905 -0.168628,-0.032808 -0.285397,-0.032808" id="path5107"/>
  <path fill="#fffef9" fill-rule="nonzero" d="m6.779774,8.977258l-3.480858,0l0,10.969272c0,0.840669 0.633942,1.590675 1.5113,1.697214c1.061508,0.129822 1.969558,-0.655461 1.969558,-1.639358l0,-11.027128z" id="path5111"/>
  <path fill="#662d91" fill-rule="nonzero" d="m5.616033,13.825909c-0.57785,0 -0.57785,0.289983 -1.155347,0.289983c-0.123825,0 -0.217664,-0.015169 -0.299508,-0.035631l0,5.837414c0,0.480131 0.389467,0.86995 0.870303,0.86995c0.480483,0 0.86995,-0.389819 0.86995,-0.86995l0,-6.058958c-0.079022,-0.01905 -0.168275,-0.032808 -0.285397,-0.032808" id="path5115"/>
  <path fill="#6bdff9" fill-rule="nonzero" d="m8.810329,24.62627c-0.160514,0 -0.289983,-0.122061 -0.289983,-0.272697l0,-11.995855c0,-0.150283 0.129469,-0.272344 0.289983,-0.272344c0.160161,0 0.289983,0.122061 0.289983,0.272344l0,11.995855c0,0.150636 -0.129822,0.272697 -0.289983,0.272697" id="path5119"/>
  <path fill="#6bdff9" fill-rule="nonzero" d="m5.337302,24.78749l3.473097,0l0,-1.196975l-3.288594,0.320675c-0.640997,0 -0.344664,0.8763 -0.184503,0.8763" id="path5147"/>
  <path fill="#6bdff9" fill-rule="nonzero" d="m12.098993,23.91109l-3.288594,-0.320322l0,1.196622l3.473097,0c0.160514,0 0.456142,-0.8763 -0.184503,-0.8763" id="path5151"/>
  <path fill="#6bdff9" fill-rule="nonzero" d="m14.611864,11.787767l-0.289631,0l-11.023247,0l-0.290336,0l-0.289983,0l0,0.580319l0.289983,0l0.290336,0l11.023247,0l0.289631,0l0.290336,0l0,-0.580319l-0.290336,0z" id="path5155"/>
  <path fill="#ffffff" fill-rule="nonzero" d="m5.879241,7.03357c-0.419453,0.009525 -0.76835,-0.322439 -0.778581,-0.742244c-0.010231,-0.420864 0.322086,-0.769408 0.741892,-0.779286c0.420158,-0.010231 0.768703,0.322086 0.778933,0.742244c0.010231,0.419806 -0.322086,0.769056 -0.742244,0.779286" id="path5139"/>
  <path fill="#ffffff" fill-rule="nonzero" id="path5123" d="m7.332368,4.16725c-0.419806,0.010231 -0.769408,-0.322086 -0.779286,-0.742244c-0.010231,-0.420158 0.322439,-0.769408 0.742597,-0.779286c0.420511,-0.010231 0.769056,0.322086 0.778933,0.742597c0.010583,0.419806 -0.321733,0.768703 -0.742244,0.778933"/>
  <g transform="matrix(0.35277777,0,0,-0.35277777,10.764157,220.51047) " id="g5129">
   <path fill="#ffffff" fill-rule="nonzero" d="m2.510391,608.944891c-1.064,-0.026 -1.946,0.815 -1.973,1.878c-0.024,1.063 0.816,1.945 1.879,1.971c1.065,0.027 1.946,-0.815 1.972,-1.876c0.025,-1.065 -0.815,-1.947 -1.878,-1.973" id="path5131"/>
  </g>
  <path fill="#ffffff" fill-rule="nonzero" d="m11.258557,6.377256c-0.749653,0.018344 -1.371953,-0.574675 -1.389944,-1.323622c-0.018344,-0.748947 0.574322,-1.3716 1.323975,-1.389592c0.749653,-0.018344 1.3716,0.574675 1.389592,1.323975c0.018344,0.748947 -0.574322,1.371247 -1.323622,1.389239" id="path5127"/>
 </g>
</svg>
