<?xml version="1.0" encoding="UTF-8" standalone="no"?>
<!-- Created with Inkscape (http://www.inkscape.org/) -->
<svg id="svg4585" xmlns:rdf="http://www.w3.org/1999/02/22-rdf-syntax-ns#" xmlns="http://www.w3.org/2000/svg" height="101.96mm" width="126.92mm" version="1.1" xmlns:cc="http://creativecommons.org/ns#" xmlns:xlink="http://www.w3.org/1999/xlink" viewBox="0 0 126.92376 101.96237" xmlns:dc="http://purl.org/dc/elements/1.1/">
 <defs id="defs4579">
  <linearGradient id="linearGradient4615" gradientUnits="userSpaceOnUse" gradientTransform="matrix(-.0000021 -47.333 -47.333 .0000021 179.89 242.59)">
   <stop id="stop4609" stop-color="#71b9d3" offset="0"/>
   <stop id="stop4611" stop-color="#ccc" offset=".52978"/>
   <stop id="stop4613" stop-color="#ccc" offset="1"/>
  </linearGradient>
  <linearGradient id="linearGradient4637" gradientUnits="userSpaceOnUse" gradientTransform="matrix(-.0000021 48.042 48.042 .0000021 179.89 45.923)">
   <stop id="stop4631" stop-color="#c1272d" offset="0"/>
   <stop id="stop4633" stop-color="#ccc" offset=".52978"/>
   <stop id="stop4635" stop-color="#ccc" offset="1"/>
  </linearGradient>
  <linearGradient id="linearGradient4659" gradientUnits="userSpaceOnUse" gradientTransform="matrix(-44 -.0000038 -.0000038 44 307.02 144.44)">
   <stop id="stop4653" stop-color="#ff8533" offset="0"/>
   <stop id="stop4655" stop-color="#ccc" offset=".52978"/>
   <stop id="stop4657" stop-color="#ccc" offset="1"/>
  </linearGradient>
  <linearGradient id="linearGradient4681" gradientUnits="userSpaceOnUse" gradientTransform="matrix(92.854 0 0 -92.854 39.909 144.44)">
   <stop id="stop4675" stop-color="#62c46c" offset="0"/>
   <stop id="stop4677" stop-color="#ccc" offset=".52978"/>
   <stop id="stop4679" stop-color="#ccc" offset="1"/>
  </linearGradient>
  <clipPath id="clipPath4691" clipPathUnits="userSpaceOnUse">
   <path id="path4689" d="m0 640h359.78v-640h-359.78z"/>
  </clipPath>
  <clipPath id="clipPath4907" clipPathUnits="userSpaceOnUse">
   <path id="path4905" d="m0 640h359.78v-640h-359.78z"/>
  </clipPath>
 </defs>
 <metadata id="metadata4582">
  <rdf:RDF>
   <cc:Work rdf:about="">
    <dc:format>image/svg+xml</dc:format>
    <dc:type rdf:resource="http://purl.org/dc/dcmitype/StillImage"/>
    <dc:title/>
   </cc:Work>
  </rdf:RDF>
 </metadata>
 <g id="layer1" transform="translate(884.58 56.504)">
  <g id="g4597" transform="matrix(.35278 0 0 -.35278 -884.58 45.458)">
   <g id="g4599">
    <g id="g4605">
     <g id="g4607">
      <path id="path4617" fill="url(#linearGradient4615)" d="m178.89 248.12v-55.476c0-0.552 0.447-1 1-1 0.552 0 1 0.448 1 1v55.476c0 0.553-0.448 1-1 1-0.553 0-1-0.447-1-1"/>
     </g>
    </g>
   </g>
  </g>
  <g id="g4619" transform="matrix(.35278 0 0 -.35278 -884.58 45.458)">
   <g id="g4621">
    <g id="g4627">
     <g id="g4629">
      <path id="path4639" fill="url(#linearGradient4637)" d="m178.89 96.384v-55.477c0-0.553 0.447-1 1-1 0.552 0 1 0.447 1 1v55.477c0 0.552-0.448 1-1 1-0.553 0-1-0.448-1-1"/>
     </g>
    </g>
   </g>
  </g>
  <g id="g4641" transform="matrix(.35278 0 0 -.35278 -884.58 45.458)">
   <g id="g4643">
    <g id="g4649">
     <g id="g4651">
      <path id="path4661" fill="url(#linearGradient4659)" d="m228.02 145.44c-0.552 0-1-0.447-1-0.999 0-0.553 0.448-1 1-1h90.856c0.553 0 1 0.447 1 1 0 0.552-0.447 0.999-1 0.999z"/>
     </g>
    </g>
   </g>
  </g>
  <g id="g4663" transform="matrix(.35278 0 0 -.35278 -884.58 45.458)">
   <g id="g4665">
    <g id="g4671">
     <g id="g4673">
      <path id="path4683" fill="url(#linearGradient4681)" d="m40.91 145.44c-0.554 0-1-0.447-1-0.999 0-0.553 0.446-1 1-1h90.853c0.552 0 1 0.447 1 1 0 0.552-0.448 0.999-1 0.999z"/>
     </g>
    </g>
   </g>
  </g>
  <g id="g4685" transform="matrix(.35278 0 0 -.35278 -884.58 45.458)">
   <g id="g4687" clip-path="url(#clipPath4691)">
    <g id="g4693" transform="translate(128.06 248.16)">
     <path id="path4695" d="m0 0h0.012v-0.038h103.65v0.011h0.012c16.041 0 29.045 13.004 29.045 29.048v11.849h-161.77v-11.849c0.021-16.033 13.017-29.021 29.05-29.021" fill="#71b9d3"/>
    </g>
    <g id="g4697" transform="translate(231.73 40.869)">
     <path id="path4699" d="m0 0h-0.012v0.038h-103.65v-0.011h-0.012c-16.041 0-29.045-13.004-29.045-29.048v-11.849h161.77v11.849c-0.019 16.033-13.017 29.021-29.05 29.021" fill="#c1272d"/>
    </g>
    <g id="g4701" transform="translate(228.02 144.51)">
     <path id="path4703" d="m0 0c0-26.584-21.545-48.13-48.127-48.13-26.584 0-48.131 21.546-48.131 48.13 0 26.581 21.547 48.13 48.131 48.13 26.582 0 48.127-21.549 48.127-48.13z" stroke="#b3b3b3" stroke-linecap="round" stroke-miterlimit="10" stroke-width="2" fill="none"/>
    </g>
   </g>
  </g>
  <g id="g4901" transform="matrix(.35278 0 0 -.35278 -884.58 45.458)">
   <g id="g4903" clip-path="url(#clipPath4907)">
    <g id="g4909" transform="translate(40.872 89.95)">
     <path id="path4911" d="m0 0v0.012h0.037v103.65h-0.01v0.012c0 16.041-13.006 29.045-29.048 29.045h-11.85v-161.77h11.85c16.033 0.02 29.021 13.017 29.021 29.05" fill="#62c46c"/>
    </g>
    <g id="g4913" transform="translate(318.92 193.62)">
     <path id="path4915" d="m0 0v-0.012h-0.039v-103.65h0.012v-0.012c0-16.041 13.004-29.045 29.048-29.045h11.85v161.77h-11.85c-16.033-0.02-29.021-13.017-29.021-29.05" fill="#ff8533"/>
    </g>
   </g>
  </g>
 </g>
</svg>
