<svg width="76.416252" height="61.008751" xmlns="http://www.w3.org/2000/svg" viewBox="0 0 76.416252 61.008751">

 <metadata id="metadata8">image/svg+xmlimage/svg+xml</metadata>
 <g id="g154">
  <title>background</title>
  <rect x="-1" y="-1" width="78.416252" height="63.008751" id="canvas_background" fill="none"/>
 </g>
 <g id="g165">
  <title>Layer 1</title>
  <path fill="#ffffff" id="path244" d="m39.75,0.00195c-3.2525,0 -6.22477,1.20008 -8.50977,3.17383c-1.91375,-1.09875 -4.12132,-1.73633 -6.48632,-1.73633c-5.835,0 -10.77141,3.8311 -12.44141,9.1211c-7.1125,2.0875 -12.3125,8.66187 -12.3125,16.45312c0,9.47 7.6843,17.15039 17.1543,17.15039c1.875,0 3.67859,-0.30453 5.37109,-0.86328c2.72875,3.165 6.75938,5.17774 11.26563,5.17774c1.42875,0 2.80171,-0.21289 4.10546,-0.58789l25.57813,13.11914l-7.18945,-10.68164c0,0 7.90695,-1.29602 10.8457,-7.60352c5.515,-2.88 9.28516,-8.64898 9.28516,-15.30273c0,-6.1725 -3.24165,-11.58477 -8.11914,-14.63477c-3.12251,-5.315 -8.89321,-8.88477 -15.50196,-8.88477c-1.1775,0 -2.32836,0.11899 -3.44336,0.33399c-2.38375,-2.59625 -5.79531,-4.23438 -9.60156,-4.23438zm-7.625,10.08203c1.845,0 3.33984,1.4954 3.33984,3.3379c0,0.29982 -0.05309,0.585 -0.12695,0.86132l16.86524,8.9375c0.61315,-0.70659 1.50676,-1.16406 2.51562,-1.16406c1.845,0 3.3418,1.49805 3.3418,3.3418c0,1.84625 -1.4968,3.33984 -3.3418,3.33984c-1.01084,0 -1.90632,-0.45782 -2.51953,-1.16601l-16.86328,8.93554c0.07457,0.27757 0.1289,0.5639 0.1289,0.86524c0,1.84125 -1.49484,3.33789 -3.33984,3.33789c-1.84375,0 -3.33789,-1.49664 -3.33789,-3.33789c0,-1.59134 1.11013,-2.91404 2.5957,-3.25196l0,-17.44726c-1.48473,-0.3387 -2.5957,-1.66127 -2.5957,-3.25195c0,-1.8425 1.49414,-3.3379 3.33789,-3.3379zm2.51758,5.51172c-0.45706,0.52938 -1.07109,0.91835 -1.77344,1.08203l0,17.44336c0.70295,0.16063 1.31324,0.54748 1.76953,1.07422l16.86328,-8.93359c-0.07437,-0.27688 -0.12695,-0.56281 -0.12695,-0.86328c0,-0.30224 0.05349,-0.59056 0.12891,-0.86914l-16.86133,-8.9336z"/>
 </g>
</svg>
