<svg width="240.56712" height="90" xmlns="http://www.w3.org/2000/svg" viewBox="0 0 240.56712 90">
 <metadata id="metadata8">image/svg+xml</metadata>

 <g>
  <title>background</title>
  <rect fill="none" id="canvas_background" height="402" width="582" y="-1" x="-1"/>
 </g>
 <g>
  <title>Layer 1</title>
  <path fill="#5ebf8e" d="m64.235253,23.050003c0,-5.18875 -2.7275,-9.73875 -6.825,-12.3025c-2.625,-4.4675 -7.47625,-7.4675 -13.03125,-7.4675c-0.99,0 -1.95625,0.09875 -2.89375,0.28c-2.005,-2.18375 -4.875,-3.56125 -8.07125,-3.56125c-2.73625,0 -5.23375,1.01 -7.155,2.6675c-1.6075,-0.92375 -3.465,-1.45875 -5.45,-1.45875c-4.90625,0 -9.0575,3.2225 -10.45875,7.66625c-5.98125,1.755 -10.35,7.2825 -10.35,13.8325c0,7.96125 6.45625,14.41625 14.41875,14.41625c1.5775,0 3.09375,-0.255 4.51375,-0.72375c2.295,2.66 5.68375,4.35 9.4725,4.35c1.19875,0 2.35375,-0.1775 3.45125,-0.4925l21.5,11.0275l-6.04375,-8.98s6.6475,-1.08875 9.11875,-6.39c4.63625,-2.42125 7.80375,-7.27 7.80375,-12.86375" id="path1108"/>
  <path fill="#6d6e70" d="m65.015254,38.787537l2.13625,-0.72l0.5725,-3.6775l2.90625,0l0,3.6775l2.955,0l0,2.65875l-2.955,0l0,5.29c0,1.93875 0.4475,2.36125 1.1175,2.61c0,0 1.49125,0.52125 1.665,0.52125l0,2.13625l-3.03125,0c-1.9375,0 -3.23,-1.2175 -3.23,-4.72l0,-5.8375l-2.13625,0l0,-1.93875z" id="path1112"/>
  <path fill="#6d6e70" d="m75.253997,31.825027l3.45375,0l0,7.6775c1.09375,-0.795 2.18625,-1.64125 4.1975,-1.64125c3.08125,0 3.95125,2.1125 3.95125,4.62125l0,8.795l-3.4775,0l0,-8.845c0,-1.2925 -0.5725,-1.7875 -1.4675,-1.7875c-1.39,0 -2.16,0.3725 -3.18,1.1425l0,9.49l-3.4775,0l0,-19.4525z" id="path1116"/>
  <path fill="#6d6e70" d="m95.4915,43.600006c0.72,0 1.09375,-0.34875 1.09375,-0.99375c0,-1.66625 -0.24875,-1.9625 -1.91375,-1.9625c-1.8375,0 -2.50875,0.09875 -2.48375,2.95625l3.30375,0zm-1.01875,-5.615c3.82625,0 5.59,0.4225 5.59,4.795c0,2.35875 -1.2925,3.32875 -3.6775,3.32875l-4.1975,0c0,2.36 0.89375,2.51 2.7825,2.51c2.0125,0 2.98125,0.02375 4.84375,-0.275l0,2.36125c-1.8625,0.695 -4.695,0.695 -6.7575,0.695c-3.35375,0 -4.3475,-1.93875 -4.3475,-6.7825c0,-5.665 1.59,-6.6325 5.76375,-6.6325" id="path1120"/>
  <path fill="#6d6e70" d="m115.966506,48.199997c1.04375,0 2.0125,-0.495 2.0125,-2.40875c0,-1.3425 -0.5475,-2.56 -2.0125,-2.56l-3.95,0l0,4.96875l3.95,0zm-0.15,-7.89875c1.26875,0 1.91375,-0.77125 1.91375,-2.06375c0,-1.6875 -1.01875,-2.06125 -1.91375,-2.06125l-3.8,0l0,4.125l3.8,0zm-7.2775,-7.205l7.5025,0c3.75125,0 5.1175,2.23625 5.1175,4.86875c0,1.665 -0.72,3.5525 -2.485,3.87625c1.51625,0.2725 2.7825,1.78875 2.7825,4.0975c0,3.38 -1.54,5.3425 -5.36625,5.3425l-7.55125,0l0,-18.185z" id="path1124"/>
  <path fill="#6d6e70" d="m123.166499,38.087463l2.93125,0l0.54625,1.665c0.895,-0.895 2.13625,-1.79 3.77625,-1.79c0.57125,0 1.11875,0 1.465,0.15l0,3.35375c-0.34625,-0.02375 -1.14125,-0.07375 -1.91125,-0.07375c-1.4425,0 -2.485,0.24875 -3.33,1.465l0,8.4225l-3.4775,0l0,-13.1925z" id="path1128"/>
  <path fill="#6d6e70" d="m137.853999,48.649979c1.44125,0 3.03,-1.04375 3.03,-1.04375l0,-2.41l-3.20375,0.24875c-0.91875,0.075 -1.06875,0.77 -1.06875,1.34125l0,0.645c0,1.09375 0.59625,1.21875 1.2425,1.21875m-4.72,-1.9625c0,-1.9375 1.04375,-3.6275 3.875,-3.6275c0,0 3.875,0.025 3.875,0c0,0 0.025,-0.82 0,-0.84375c0,-1.41625 -0.67,-1.615 -1.7625,-1.615c-1.16875,0 -4.4725,0.19875 -5.54,0.2725l0,-2.16c1.73875,-0.67125 3.55125,-0.87125 6.01125,-0.87125c2.8325,0 4.77125,0.96875 4.77125,4.24875l0,9.19125l-2.76,0l-0.72,-1.44c-0.1475,0.27375 -2.0125,1.64 -4.02375,1.59c-2.535,-0.07375 -3.72625,-1.78875 -3.72625,-3.5025l0,-1.2425z" id="path1132"/>
  <path fill="#6d6e70" d="m146.354,38.0875l3.4775,0l0,13.1925l-3.4775,0l0,-13.1925zm-0.125,-4.15c0,-0.39625 0.19875,-0.64375 0.59625,-0.64375l2.60875,0c0.3725,0 0.54625,0.2975 0.54625,0.64375l0,2.18625c0,0.375 -0.19875,0.5725 -0.54625,0.5725l-2.60875,0c-0.3475,0 -0.59625,-0.22375 -0.59625,-0.5725l0,-2.18625z" id="path1134"/>
  <path fill="#6d6e70" d="m152.066493,38.087463l2.7825,0l0.69625,1.4175c1.1175,-0.82 2.16125,-1.64125 4.17375,-1.64125c3.08,0 3.95,2.1125 3.95,4.6225l0,8.79375l-3.4775,0l0,-8.84375c0,-1.29375 -0.5975,-1.78875 -1.4675,-1.78875c-1.39,0 -2.16,0.3725 -3.17875,1.1425l0,9.49l-3.47875,0l0,-13.1925z" id="path1138"/>
  <path fill="#5ebf8e" d="m185.978999,34.437485l0.91625,0l0,5.88c0,0.5275 0.32875,0.5175 0.61625,0.5175l2.895,0l0,0.88625l-3.03375,0c-0.68625,0 -1.39375,-0.17875 -1.39375,-1.29375l0,-5.99z" id="path1142"/>
  <path fill="#5ebf8e" d="m192.454009,35.800018c0,-1.055 0.66625,-1.3825 1.3425,-1.3525c0,0 2.985,0.13875 3.165,0.15875l0,0.73625l-3.075,0c-0.5175,0 -0.5175,0.2875 -0.5175,0.5575l0,1.75l3.17375,0.10125l0,0.745l-3.17375,0.09875l0,1.75375c0.01,0.5275 0.32875,0.51625 0.6175,0.51625l2.975,0l0,0.72625c-0.15875,0.02 -3.065,0.17 -3.065,0.17c-0.65625,0.04 -1.4425,-0.13 -1.4425,-1.31375l0,-4.6475z" id="path1146"/>
  <path fill="#5ebf8e" d="m202.941508,38.937531l-1.075,-3.18375l-1.11375,3.18375l2.18875,0zm-1.5525,-4.4975l0.965,0l2.50875,7.28375l-1.045,0l-0.5975,-1.92125l-2.75625,0l-0.62625,1.92125l-1.065,0l2.61625,-7.28375z" id="path1150"/>
  <path fill="#5ebf8e" d="m209.741492,37.900009c0.46875,0 0.87625,-0.04 0.87625,-1.24375c0,-1.175 -0.43875,-1.335 -0.87625,-1.335l-2.17,0l0,2.57875l2.17,0zm-3.085,-3.4525l3.125,0c0.995,0 1.76125,0.5375 1.76125,2.20875c0,1.87125 -0.925,2.04 -1.23375,2.11l1.4925,2.965l-1.005,0l-1.4425,-2.91625l-1.7825,-0.13875l0,3.055l-0.915,0l0,-7.28375z" id="path1154"/>
  <path fill="#5ebf8e" d="m213.754001,34.437485l0.93625,0l3.61125,5.58125l0,-5.58125l0.915,0l0,7.28375l-0.915,0l-3.6225,-5.5725l0,5.5725l-0.925,0l0,-7.28375z" id="path1158"/>
  <path fill="#5ebf8e" d="m221.504,34.45l0.91625,0l0,7.28375l-0.91625,0l0,-7.28375z" id="path1160"/>
  <path fill="#5ebf8e" d="m224.716506,34.437485l0.935,0l3.6125,5.58125l0,-5.58125l0.915,0l0,7.28375l-0.915,0l-3.6225,-5.5725l0,5.5725l-0.925,0l0,-7.28375z" id="path1164"/>
  <path fill="#5ebf8e" d="m234.579005,34.362488c0.6775,0 1.80125,0.12 2.5975,0.28l0,0.725c-0.06,0 -1.4825,-0.12875 -2.5075,-0.12875c-1.25375,0 -1.5225,0.875 -1.5225,2.82625c0,2.11875 0.3575,2.81625 1.5325,2.82625c0.735,0.0075 1.73125,-0.45875 1.73125,-0.45875l0,-1.8l-1.4925,0l0,-0.6075c0.4075,-0.11875 0.945,-0.23875 1.73125,-0.23875c0.20875,0 0.4375,0 0.67625,0.02l0,3.92125l-0.67625,0l-0.21875,-0.48875c-0.36875,0.22875 -0.945,0.5275 -1.83125,0.5375c-2.06,0.04 -2.3675,-1.6325 -2.3675,-3.7325c0,-2.01875 0.3675,-3.68125 2.3475,-3.68125" id="path1168"/>
  <path fill="#5ebf8e" d="m188.803992,48.562469c0.49625,0 0.925,-0.16875 0.925,-1.37375c-0.01875,-1.18375 -0.57625,-1.2725 -0.925,-1.2725l-2.08,0l0,2.64625l2.08,0zm-2.995,-3.52125l3.025,0c0.82625,0 1.82,0.3175 1.82,2.1475c0,2.12125 -1.05375,2.26 -1.82,2.25c-0.3975,-0.01 -2.06,-0.17875 -2.11,-0.1975l0,3.08375l-0.915,0l0,-7.28375z" id="path1172"/>
  <path fill="#5ebf8e" d="m192.804008,45.049973l0.915,0l0,5.88c0,0.5275 0.32875,0.5175 0.6175,0.5175l2.895,0l0,0.88625l-3.035,0c-0.68625,0 -1.3925,-0.17875 -1.3925,-1.29375l0,-5.99z" id="path1176"/>
  <path fill="#5ebf8e" d="m203.129001,49.537506l-1.07375,-3.18375l-1.115,3.18375l2.18875,0zm-1.5525,-4.4975l0.96625,0l2.5075,7.28375l-1.045,0l-0.5975,-1.92l-2.75625,0l-0.62625,1.92l-1.065,0l2.61625,-7.28375z" id="path1180"/>
  <path fill="#5ebf8e" d="m205.729003,45.049973l5.145,0l0,0.885l-2.14,0l0,6.39875l-0.915,0l0,-6.39875l-2.09,0l0,-0.885z" id="path1184"/>
  <path fill="#5ebf8e" d="m212.653995,46.412506c0,-1.035 0.6475,-1.3925 1.34375,-1.36375c0,0 2.985,0.14 3.16375,0.15875l0,0.73625l-3.07375,0c-0.51875,0 -0.51875,0.28875 -0.51875,0.5575l0,1.75125l3.175,0.1l0,0.74625l-3.175,0.1l0,3.13375l-0.915,0l0,-5.92z" id="path1188"/>
  <path fill="#5ebf8e" d="m221.816497,51.487503c1.4425,0 1.92125,-0.4075 1.92125,-2.74625c0,-2.7875 -0.6375,-2.85625 -1.92125,-2.85625c-1.26375,0 -1.94,0.05875 -1.94,2.85625c0,2.39875 0.4575,2.74625 1.94,2.74625m0,-6.4875c1.72125,0 2.83625,0.3275 2.83625,3.74125c0,3.21375 -1.045,3.63125 -2.83625,3.63125s-2.85625,-0.3175 -2.85625,-3.63125c0,-3.41375 1.185,-3.74125 2.85625,-3.74125" id="path1192"/>
  <path fill="#5ebf8e" d="m229.716506,48.499985c0.4675,0 0.875,-0.03875 0.875,-1.24375c0,-1.17375 -0.4375,-1.33375 -0.875,-1.33375l-2.16875,0l0,2.5775l2.16875,0zm-3.085,-3.4525l3.125,0c0.995,0 1.76125,0.5375 1.76125,2.20875c0,1.87125 -0.92625,2.04125 -1.23375,2.11l1.4925,2.965l-1.005,0l-1.44375,-2.915l-1.78,-0.14l0,3.055l-0.91625,0l0,-7.28375z" id="path1196"/>
  <path fill="#5ebf8e" d="m234.016509,45.049973l1.26375,0l1.74,5.76125l1.7025,-5.76125l1.25375,0l0.5875,7.28375l-0.905,0l-0.46,-5.6525l-1.68,5.6525l-0.97625,0l-1.73125,-5.6525l-0.4075,5.6525l-0.915,0l0.5275,-7.28375z" id="path1200"/>
  <path fill="#6d6e70" d="m176.1915,65.9875l-0.625,0l0,-44.0575l0.625,0l0,44.0575z" id="path1202"/>
  <path fill="#fff" d="m43.186498,21.350021c0,1.55125 1.2575,2.8075 2.81,2.8075c1.54875,0 2.80625,-1.25625 2.80625,-2.8075c0,-1.54875 -1.2575,-2.8075 -2.80625,-2.8075c-1.5525,0 -2.81,1.25875 -2.81,2.8075" id="path1206"/>
  <path fill="#fff" d="m24.195252,31.214487c0,1.54875 1.2575,2.80625 2.8075,2.80625c1.55125,0 2.80875,-1.2575 2.80875,-2.80625c0,-1.55125 -1.2575,-2.80875 -2.80875,-2.80875c-1.55,0 -2.8075,1.2575 -2.8075,2.80875" id="path1210"/>
  <path fill="#fff" d="m24.195252,11.287537c0,1.5525 1.2575,2.80875 2.8075,2.80875c1.55125,0 2.80875,-1.25625 2.80875,-2.80875c0,-1.54875 -1.2575,-2.80625 -2.80875,-2.80625c-1.55,0 -2.8075,1.2575 -2.8075,2.80625" id="path1214"/>
  <path fill="#fff" d="m45.702748,21.900024l-18.99125,-10.06125l0.58375,-1.10375l18.99125,10.0625l-0.58375,1.1025z" id="path1218"/>
  <path fill="#fff" d="m27.62775,31.4125l-1.24875,0l0,-20.125l1.24875,0l0,20.125z" id="path1220"/>
  <path fill="#fff" d="m27.295251,31.962509l-0.58375,-1.10375l18.99125,-10.06l0.58375,1.1025l-18.99125,10.06125z" id="path1224"/>
 </g>
</svg>