<?xml version="1.0" encoding="UTF-8" standalone="no"?>
<!-- Created with Inkscape (http://www.inkscape.org/) -->
<svg id="svg2" xmlns:rdf="http://www.w3.org/1999/02/22-rdf-syntax-ns#" xmlns="http://www.w3.org/2000/svg" xml:space="preserve" height="61.009" viewBox="0 0 76.416252 61.008751" width="76.416" version="1.1" xmlns:cc="http://creativecommons.org/ns#" xmlns:xlink="http://www.w3.org/1999/xlink" xmlns:dc="http://purl.org/dc/elements/1.1/"><metadata id="metadata8"><rdf:RDF><cc:Work rdf:about=""><dc:format>image/svg+xml</dc:format><dc:type rdf:resource="http://purl.org/dc/dcmitype/StillImage"/><dc:title/></cc:Work></rdf:RDF></metadata><g id="g10" transform="matrix(1.25 0 0 -1.25 -38.952 769.06)"><g id="g3666"><g id="g3649"><g id="g242" transform="translate(92.295 593.31)"><path id="path244" d="m0 0c0 4.938-2.594 9.268-6.496 11.708-2.498 4.252-7.115 7.108-12.402 7.108-0.942 0-1.862-0.095-2.754-0.267-1.907 2.077-4.637 3.388-7.682 3.388-2.602 0-4.979-0.96-6.807-2.539-1.531 0.879-3.297 1.388-5.189 1.388-4.668 0-8.617-3.064-9.953-7.296-5.69-1.67-9.85-6.93-9.85-13.163 0-7.576 6.147-13.72 13.723-13.72 1.5 0 2.943 0.243 4.297 0.69 2.183-2.532 5.408-4.142 9.013-4.142 1.143 0 2.241 0.17 3.284 0.47l20.462-10.495-5.751 8.546s6.326 1.036 8.677 6.082c4.412 2.304 7.428 6.919 7.428 12.242" fill="#fff"/></g></g><g id="g3653"><g id="g246" transform="translate(72.262 594.93)"><path id="path248" d="m0 0c0-1.477 1.197-2.672 2.674-2.672 1.476 0 2.674 1.195 2.674 2.672 0 1.475-1.198 2.672-2.674 2.672-1.477 0-2.674-1.197-2.674-2.672" fill="#662d91"/></g><g id="g250" transform="translate(54.191 585.35)"><path id="path252" d="m0 0c0-1.473 1.195-2.671 2.67-2.671 1.476 0 2.672 1.198 2.672 2.671 0 1.478-1.196 2.673-2.672 2.673-1.475 0-2.67-1.195-2.67-2.673" fill="#662d91"/></g><g id="g254" transform="translate(54.191 604.51)"><path id="path256" d="m0 0c0-1.478 1.195-2.673 2.67-2.673 1.476 0 2.672 1.195 2.672 2.673 0 1.474-1.196 2.671-2.672 2.671-1.475 0-2.67-1.197-2.67-2.671" fill="#662d91"/></g><g id="g258" transform="translate(74.658 594.41)"><path id="path260" d="m0 0-18.074 9.575 0.556 1.051l18.073-9.577-0.555-1.049z" fill="#662d91"/></g><path id="path262" d="m57.457 585.35h-1.189v19.153h1.189v-19.153z" fill="#662d91"/><g id="g264" transform="translate(57.141 584.83)"><path id="path266" d="m0 0-0.557 1.05 18.075 9.574 0.554-1.049-18.072-9.575z" fill="#662d91"/></g></g></g></g></svg>
