<svg width="76.416252" height="61.008751" xmlns="http://www.w3.org/2000/svg" viewBox="0 0 76.416252 61.008751">

 <metadata id="metadata8">image/svg+xml</metadata>
 <g>
  <title>background</title>
  <rect fill="none" id="canvas_background" height="402" width="582" y="-1" x="-1"/>
 </g>
 <g>
  <title>Layer 1</title>
  <path fill="#ffffff" id="path244" d="m76.41675,27.4225c0,-6.1725 -3.2425,-11.585 -8.12,-14.635c-3.1225,-5.315 -8.89375,-8.885 -15.5025,-8.885c-1.1775,0 -2.3275,0.11875 -3.4425,0.33375c-2.38375,-2.59625 -5.79625,-4.235 -9.6025,-4.235c-3.2525,0 -6.22375,1.2 -8.50875,3.17375c-1.91375,-1.09875 -4.12125,-1.735 -6.48625,-1.735c-5.835,0 -10.77125,3.83 -12.44125,9.12c-7.1125,2.0875 -12.3125,8.6625 -12.3125,16.45375c0,9.47 7.68375,17.15 17.15375,17.15c1.875,0 3.67875,-0.30375 5.37125,-0.8625c2.72875,3.165 6.76,5.1775 11.26625,5.1775c1.42875,0 2.80125,-0.2125 4.105,-0.5875l25.5775,13.11875l-7.18875,-10.6825c0,0 7.9075,-1.295 10.84625,-7.6025c5.515,-2.88 9.285,-8.64875 9.285,-15.3025"/>
  <path fill="#662d91" id="path248" d="m51.3755,25.3975c0,1.84625 1.49625,3.34 3.3425,3.34c1.845,0 3.3425,-1.49375 3.3425,-3.34c0,-1.84375 -1.4975,-3.34 -3.3425,-3.34c-1.84625,0 -3.3425,1.49625 -3.3425,3.34"/>
  <path fill="#662d91" id="path252" d="m28.78675,37.3725c0,1.84125 1.49375,3.33875 3.3375,3.33875c1.845,0 3.34,-1.4975 3.34,-3.33875c0,-1.8475 -1.495,-3.34125 -3.34,-3.34125c-1.84375,0 -3.3375,1.49375 -3.3375,3.34125"/>
  <path fill="#662d91" id="path256" d="m28.78675,13.4225c0,1.8475 1.49375,3.34125 3.3375,3.34125c1.845,0 3.34,-1.49375 3.34,-3.34125c0,-1.8425 -1.495,-3.33875 -3.34,-3.33875c-1.84375,0 -3.3375,1.49625 -3.3375,3.33875"/>
  <path fill="#662d91" id="path260" d="m54.3705,26.0475l-22.5925,-11.96875l0.695,-1.31375l22.59125,11.97125l-0.69375,1.31125z"/>
  <path fill="#662d91" d="m32.86925,37.3725l-1.48625,0l0,-23.94125l1.48625,0l0,23.94125z" id="path262"/>
  <path fill="#662d91" id="path266" d="m32.47425,38.0225l-0.69625,-1.3125l22.59375,-11.9675l0.6925,1.31125l-22.59,11.96875z"/>
 </g>
</svg>