 <svg width="395.46094" height="44.31836" xmlns="http://www.w3.org/2000/svg" viewBox="0 0 395.46094 44.31836">
 <metadata id="metadata8">image/svg+xmlimage/svg+xml</metadata>
 <defs>
  <clipPath clipPathUnits="userSpaceOnUse" id="clipPath142">
   <path d="m21.87,470.28l0,-177.26l288.52,0l27.843,27.842l0,149.42l-316.37,0l0.007,-0.002z" id="path144"/>
  </clipPath>
  <filter color-interpolation-filters="sRGB" x="-0.41998" y="-0.42002" width="1.84" height="1.84" id="filter5532">
   <feGaussianBlur stdDeviation="4.872525" id="feGaussianBlur5534"/>
  </filter>
 </defs>
 <g id="g11">
  <title>background</title>
  <rect fill="none" id="canvas_background" height="46.31836" width="397.46094" y="-1" x="-1"/>
 </g>
 <g id="g16">
  <title>Layer 1</title>
  <path fill="#ffffff" d="m0,44.318l360.65,0l34.807,-34.803l0,-11.19664l-395.46,0c0.00737,15.3332 0.003,30.66643 0.003,45.99964z" id="rect3751"/>
  <path fill="#b2b2b2" filter="url(#filter5532)" d="m360.6495,9.615l0,34.8025l34.805,-34.8025l-34.805,0z" id="path5352"/>
  <g transform="matrix(1.25,0,0,-1.25,-27.338,410.59) " id="g138">
   <g clip-path="url(#clipPath142)" id="g140">
    <g id="g146">
     <path fill="#fff" d="m310.39002,320.85998l0,-27.84199l27.84399,27.84199l-27.84399,0z" id="path148"/>
    </g>
   </g>
  </g>
 </g>
</svg>