<?xml version="1.0" encoding="UTF-8" standalone="no"?>
<!-- Created with Inkscape (http://www.inkscape.org/) -->
<svg id="svg2" xmlns:rdf="http://www.w3.org/1999/02/22-rdf-syntax-ns#" xmlns="http://www.w3.org/2000/svg" xml:space="preserve" height="65.987" viewBox="0 0 240.56712 65.986877" width="240.57" version="1.1" xmlns:cc="http://creativecommons.org/ns#" xmlns:xlink="http://www.w3.org/1999/xlink" xmlns:dc="http://purl.org/dc/elements/1.1/"><metadata id="metadata8"><rdf:RDF><cc:Work rdf:about=""><dc:format>image/svg+xml</dc:format><dc:type rdf:resource="http://purl.org/dc/dcmitype/StillImage"/><dc:title/></cc:Work></rdf:RDF></metadata><g id="g10" transform="matrix(1.25 0 0 -1.25 -49.821 746.25)"><g id="g4705"><g id="g1106" transform="translate(91.245 578.56)"><path id="path1108" d="m0 0c0 4.151-2.182 7.791-5.46 9.842-2.1 3.574-5.981 5.974-10.425 5.974-0.792 0-1.565-0.079-2.315-0.224-1.604 1.747-3.9 2.849-6.457 2.849-2.189 0-4.187-0.808-5.724-2.134-1.286 0.739-2.772 1.167-4.36 1.167-3.925 0-7.246-2.578-8.367-6.133-4.785-1.404-8.28-5.826-8.28-11.066 0-6.369 5.165-11.533 11.535-11.533 1.262 0 2.475 0.204 3.611 0.579 1.836-2.128 4.547-3.48 7.578-3.48 0.959 0 1.883 0.142 2.761 0.394l17.2-8.822-4.835 7.184s5.318 0.871 7.295 5.112c3.709 1.937 6.243 5.816 6.243 10.291" fill="#5ebf8e"/></g><g id="g1110" transform="translate(91.869 565.97)"><path id="path1112" d="m0 0 1.709 0.576 0.458 2.942h2.325v-2.942h2.364v-2.127h-2.364v-4.232c0-1.551 0.358-1.889 0.894-2.088 0 0 1.193-0.417 1.332-0.417v-1.709h-2.425c-1.55 0-2.584 0.974-2.584 3.776v4.67h-1.709v1.551z" fill="#6d6e70"/></g><g id="g1114" transform="translate(100.06 571.54)"><path id="path1116" d="m0 0h2.763v-6.142c0.875 0.636 1.749 1.313 3.358 1.313 2.465 0 3.161-1.69 3.161-3.697v-7.036h-2.782v7.076c0 1.034-0.458 1.43-1.174 1.43-1.112 0-1.728-0.298-2.544-0.914v-7.592h-2.782v15.562z" fill="#6d6e70"/></g><g id="g1118" transform="translate(116.25 562.12)"><path id="path1120" d="m0 0c0.576 0 0.875 0.279 0.875 0.795 0 1.333-0.199 1.57-1.531 1.57-1.47 0-2.007-0.079-1.987-2.365h2.643zm-0.815 4.492c3.061 0 4.472-0.338 4.472-3.836 0-1.887-1.034-2.663-2.942-2.663h-3.358c0-1.888 0.715-2.008 2.226-2.008 1.61 0 2.385-0.019 3.875 0.22v-1.889c-1.49-0.556-3.756-0.556-5.406-0.556-2.683 0-3.478 1.551-3.478 5.426 0 4.532 1.272 5.306 4.611 5.306" fill="#6d6e70"/></g><g id="g1122" transform="translate(132.63 558.44)"><path id="path1124" d="m0 0c0.835 0 1.61 0.396 1.61 1.927 0 1.074-0.438 2.048-1.61 2.048h-3.16v-3.975h3.16zm-0.12 6.319c1.015 0 1.531 0.617 1.531 1.651 0 1.35-0.815 1.649-1.531 1.649h-3.04v-3.3h3.04zm-5.822 5.764h6.002c3.001 0 4.094-1.789 4.094-3.895 0-1.332-0.576-2.842-1.988-3.101 1.213-0.218 2.226-1.431 2.226-3.278 0-2.704-1.232-4.274-4.293-4.274h-6.041v14.548z" fill="#6d6e70"/></g><g id="g1126" transform="translate(138.39 566.53)"><path id="path1128" d="m0 0h2.345l0.437-1.332c0.716 0.716 1.709 1.432 3.021 1.432 0.457 0 0.895 0 1.172-0.12v-2.683c-0.277 0.019-0.913 0.059-1.529 0.059-1.154 0-1.988-0.199-2.664-1.172v-6.738h-2.782v10.554z" fill="#6d6e70"/></g><g id="g1130" transform="translate(150.14 558.08)"><path id="path1132" d="m0 0c1.153 0 2.424 0.835 2.424 0.835v1.928l-2.563-0.199c-0.735-0.06-0.855-0.616-0.855-1.073v-0.516c0-0.875 0.477-0.975 0.994-0.975m-3.776 1.57c0 1.55 0.835 2.902 3.1 2.902 0 0 3.1-0.02 3.1 0 0 0 0.02 0.656 0 0.675 0 1.133-0.536 1.292-1.41 1.292-0.935 0-3.578-0.159-4.432-0.218v1.728c1.391 0.537 2.841 0.697 4.809 0.697 2.266 0 3.817-0.775 3.817-3.399v-7.353h-2.208l-0.576 1.152c-0.118-0.219-1.61-1.312-3.219-1.272-2.028 0.059-2.981 1.431-2.981 2.802v0.994z" fill="#6d6e70"/></g><path id="path1134" d="m156.94 566.53h2.782v-10.554h-2.782v10.554zm-0.1 3.32c0 0.317 0.159 0.515 0.477 0.515h2.087c0.298 0 0.437-0.238 0.437-0.515v-1.749c0-0.3-0.159-0.458-0.437-0.458h-2.087c-0.278 0-0.477 0.179-0.477 0.458v1.749z" fill="#6d6e70"/><g id="g1136" transform="translate(161.51 566.53)"><path id="path1138" d="m0 0h2.226l0.557-1.134c0.894 0.656 1.729 1.313 3.339 1.313 2.464 0 3.16-1.69 3.16-3.698v-7.035h-2.782v7.075c0 1.035-0.478 1.431-1.174 1.431-1.112 0-1.728-0.298-2.543-0.914v-7.592h-2.783v10.554z" fill="#6d6e70"/></g><g id="g1140" transform="translate(188.64 569.45)"><path id="path1142" d="m0 0h0.733v-4.704c0-0.422 0.263-0.414 0.493-0.414h2.316v-0.709h-2.427c-0.549 0-1.115 0.143-1.115 1.035v4.792z" fill="#5ebf8e"/></g><g id="g1144" transform="translate(193.82 568.36)"><path id="path1146" d="m0 0c0 0.844 0.533 1.106 1.074 1.082 0 0 2.388-0.111 2.532-0.127v-0.589h-2.46c-0.414 0-0.414-0.23-0.414-0.446v-1.4l2.539-0.081v-0.596l-2.539-0.079v-1.403c0.008-0.422 0.263-0.413 0.494-0.413h2.38v-0.581c-0.127-0.016-2.452-0.136-2.452-0.136-0.525-0.032-1.154 0.104-1.154 1.051v3.718z" fill="#5ebf8e"/></g><g id="g1148" transform="translate(202.21 565.85)"><path id="path1150" d="m0 0-0.86 2.547-0.891-2.547h1.751zm-1.242 3.598h0.772l2.007-5.827h-0.836l-0.478 1.537h-2.205l-0.501-1.537h-0.852l2.093 5.827z" fill="#5ebf8e"/></g><g id="g1152" transform="translate(207.65 566.68)"><path id="path1154" d="m0 0c0.375 0 0.701 0.032 0.701 0.995 0 0.94-0.351 1.068-0.701 1.068h-1.736v-2.063h1.736zm-2.468 2.762h2.5c0.796 0 1.409-0.43 1.409-1.767 0-1.497-0.74-1.632-0.987-1.688l1.194-2.372h-0.804l-1.154 2.333-1.426 0.111v-2.444h-0.732v5.827z" fill="#5ebf8e"/></g><g id="g1156" transform="translate(210.86 569.45)"><path id="path1158" d="m0 0h0.749l2.889-4.465v4.465h0.732v-5.827h-0.732l-2.898 4.458v-4.458h-0.74v5.827z" fill="#5ebf8e"/></g><path id="path1160" d="m217.06 569.44h0.733v-5.827h-0.733v5.827z" fill="#5ebf8e"/><g id="g1162" transform="translate(219.63 569.45)"><path id="path1164" d="m0 0h0.748l2.89-4.465v4.465h0.732v-5.827h-0.732l-2.898 4.458v-4.458h-0.74v5.827z" fill="#5ebf8e"/></g><g id="g1166" transform="translate(227.52 569.51)"><path id="path1168" d="m0 0c0.542 0 1.441-0.096 2.078-0.224v-0.58c-0.048 0-1.186 0.103-2.006 0.103-1.003 0-1.218-0.7-1.218-2.261 0-1.695 0.286-2.253 1.226-2.261 0.588-0.006 1.385 0.367 1.385 0.367v1.44h-1.194v0.486c0.326 0.095 0.756 0.191 1.385 0.191 0.167 0 0.35 0 0.541-0.016v-3.137h-0.541l-0.175 0.391c-0.295-0.183-0.756-0.422-1.465-0.43-1.648-0.032-1.894 1.306-1.894 2.986 0 1.615 0.294 2.945 1.878 2.945" fill="#5ebf8e"/></g><g id="g1170" transform="translate(190.9 558.15)"><path id="path1172" d="m0 0c0.397 0 0.74 0.135 0.74 1.099-0.015 0.947-0.461 1.018-0.74 1.018h-1.664v-2.117h1.664zm-2.396 2.817h2.42c0.661 0 1.456-0.254 1.456-1.718 0-1.697-0.843-1.808-1.456-1.8-0.318 0.008-1.648 0.143-1.688 0.158v-2.467h-0.732v5.827z" fill="#5ebf8e"/></g><g id="g1174" transform="translate(194.1 560.96)"><path id="path1176" d="m0 0h0.732v-4.704c0-0.422 0.263-0.414 0.494-0.414h2.316v-0.709h-2.428c-0.549 0-1.114 0.143-1.114 1.035v4.792z" fill="#5ebf8e"/></g><g id="g1178" transform="translate(202.36 557.37)"><path id="path1180" d="m0 0-0.859 2.547-0.892-2.547h1.751zm-1.242 3.598h0.773l2.006-5.827h-0.836l-0.478 1.536h-2.205l-0.501-1.536h-0.852l2.093 5.827z" fill="#5ebf8e"/></g><g id="g1182" transform="translate(204.44 560.96)"><path id="path1184" d="m0 0h4.116v-0.708h-1.712v-5.119h-0.732v5.119h-1.672v0.708z" fill="#5ebf8e"/></g><g id="g1186" transform="translate(209.98 559.87)"><path id="path1188" d="m0 0c0 0.828 0.518 1.114 1.075 1.091 0 0 2.388-0.112 2.531-0.127v-0.589h-2.459c-0.415 0-0.415-0.231-0.415-0.446v-1.401l2.54-0.08v-0.597l-2.54-0.08v-2.507h-0.732v4.736z" fill="#5ebf8e"/></g><g id="g1190" transform="translate(217.31 555.81)"><path id="path1192" d="m0 0c1.154 0 1.537 0.326 1.537 2.197 0 2.23-0.51 2.285-1.537 2.285-1.011 0-1.552-0.047-1.552-2.285 0-1.919 0.366-2.197 1.552-2.197m0 5.19c1.377 0 2.269-0.262 2.269-2.993 0-2.571-0.836-2.905-2.269-2.905s-2.285 0.254-2.285 2.905c0 2.731 0.948 2.993 2.285 2.993" fill="#5ebf8e"/></g><g id="g1194" transform="translate(223.63 558.2)"><path id="path1196" d="m0 0c0.374 0 0.7 0.031 0.7 0.995 0 0.939-0.35 1.067-0.7 1.067h-1.735v-2.062h1.735zm-2.468 2.762h2.5c0.796 0 1.409-0.43 1.409-1.767 0-1.497-0.741-1.633-0.987-1.688l1.194-2.372h-0.804l-1.155 2.332-1.424 0.112v-2.444h-0.733v5.827z" fill="#5ebf8e"/></g><g id="g1198" transform="translate(227.07 560.96)"><path id="path1200" d="m0 0h1.011l1.392-4.609 1.362 4.609h1.003l0.47-5.827h-0.724l-0.368 4.522-1.344-4.522h-0.781l-1.385 4.522-0.326-4.522h-0.732l0.422 5.827z" fill="#5ebf8e"/></g><path id="path1202" d="m180.81 544.21h-0.5v35.246h0.5v-35.246z" fill="#6d6e70"/><g id="g1204" transform="translate(74.406 579.92)"><path id="path1206" d="m0 0c0-1.241 1.006-2.246 2.248-2.246 1.239 0 2.245 1.005 2.245 2.246 0 1.239-1.006 2.246-2.245 2.246-1.242 0-2.248-1.007-2.248-2.246" fill="#fff"/></g><g id="g1208" transform="translate(59.213 571.87)"><path id="path1210" d="m0 0c0-1.239 1.006-2.245 2.246-2.245 1.241 0 2.247 1.006 2.247 2.245 0 1.241-1.006 2.247-2.247 2.247-1.24 0-2.246-1.006-2.246-2.247" fill="#fff"/></g><g id="g1212" transform="translate(59.213 587.97)"><path id="path1214" d="m0 0c0-1.242 1.006-2.247 2.246-2.247 1.241 0 2.247 1.005 2.247 2.247 0 1.239-1.006 2.245-2.247 2.245-1.24 0-2.246-1.006-2.246-2.245" fill="#fff"/></g><g id="g1216" transform="translate(76.419 579.48)"><path id="path1218" d="m0 0-15.193 8.049 0.467 0.883 15.193-8.05-0.467-0.882z" fill="#fff"/></g><path id="path1220" d="m61.959 571.87h-0.999v16.1h0.999v-16.1z" fill="#fff"/><g id="g1222" transform="translate(61.693 571.43)"><path id="path1224" d="m0 0-0.467 0.883 15.193 8.048 0.467-0.882-15.193-8.049z" fill="#fff"/></g></g></g></svg>
